<?xml version="1.0" encoding="utf-8"?>
<!-- Generator: Adobe Illustrator 14.0.0, SVG Export Plug-In . SVG Version: 6.00 Build 43363)  -->
<!DOCTYPE svg PUBLIC "-//W3C//DTD SVG 1.1//EN" "http://www.w3.org/Graphics/SVG/1.1/DTD/svg11.dtd">
<svg version="1.1" id="Capa_1" xmlns="http://www.w3.org/2000/svg" xmlns:xlink="http://www.w3.org/1999/xlink" x="0px" y="0px"
	 width="66px" height="22px" viewBox="3 3.5 66 22" enable-background="new 3 3.5 66 22" xml:space="preserve">
<g>
	<path fill="#FFFFFF" d="M15.768,11.663c1.727-1.404,1.989-3.941,0.586-5.667c-0.796-0.981-1.956-1.488-3.127-1.488H9.505
		C8.62,4.514,7.73,4.808,6.989,5.411C6.011,6.206,5.502,7.367,5.502,8.538V8.537v5.586c0,0,0.86-1.418,3.068-1.564v0.001h0.803
		c0.113,0.004,0.226,0.005,0.337,0h0.045h3.313C14.015,12.599,14.976,12.306,15.768,11.663"/>
	<path fill="#FFFFFF" d="M16.927,21.808c1.905-1.547,2.192-4.345,0.646-6.248c-0.879-1.079-2.158-1.64-3.448-1.64h-4.21
		c-0.977,0.005-1.957,0.331-2.774,0.994c-1.08,0.877-1.64,2.159-1.64,3.45L5.5,18.361v6.16c0,0,0.95-1.563,3.383-1.725v0.001h0.885
		c0.124,0.006,0.248,0.006,0.372,0h0.049h3.761C14.992,22.839,16.054,22.519,16.927,21.808"/>
	<path fill="#FFFFFF" d="M21.65,7.723c0-0.348,0.264-0.616,0.614-0.616h2.231c0.349,0,0.615,0.269,0.615,0.616v3.401
		c0.834-0.268,1.657-0.512,2.885-0.512c3.195,0,5.369,1.923,5.369,5.694c0,3.747-2.154,5.671-6.353,5.671
		c-1.944,0-4.301-0.51-5.362-1.125L21.65,7.723L21.65,7.723z M25.111,19.339c0.471,0.12,1.269,0.221,2.105,0.221
		c1.908,0,2.581-1.003,2.581-3.252c0-2.274-0.672-3.279-2.517-3.279c-0.511,0-1.333,0.146-2.168,0.409L25.111,19.339L25.111,19.339z
		"/>
	<path fill="#FFFFFF" d="M35.121,8.255c0-0.715,0.413-1.148,1.131-1.148h1.25c0.713,0,1.101,0.432,1.101,1.148v0.76
		c0,0.718-0.388,1.145-1.101,1.145h-1.25c-0.718,0-1.131-0.427-1.131-1.145V8.255z M35.76,21.896c-0.349,0-0.614-0.263-0.614-0.614
		v-9.48c0-0.351,0.266-0.617,0.614-0.617h2.234c0.347,0,0.609,0.267,0.609,0.617v9.48c0,0.352-0.263,0.614-0.609,0.614H35.76z"/>
	<path fill="#FFFFFF" d="M44.657,21.941c-2.862,0-4.295-1.432-4.295-4.506V7.723c0-0.348,0.262-0.616,0.613-0.616h2.23
		c0.351,0,0.617,0.269,0.617,0.616v3.575h2.897c0.355,0,0.616,0.268,0.616,0.614v1.377c0,0.349-0.261,0.614-0.616,0.614h-2.897
		v3.532c0,1.395,0.713,2.133,1.763,2.133c0.527,0,0.92-0.123,1.371-0.123h0.366c0.348,0,0.613,0.265,0.613,0.614v1.063
		c0,0.307-0.266,0.551-0.613,0.615C46.707,21.861,45.587,21.941,44.657,21.941"/>
	<path fill="#FFFFFF" d="M52.032,17.318c0.141,1.639,0.856,2.36,2.486,2.36c0.835,0,1.571-0.252,1.91-0.682
		c0.259-0.328,0.614-0.529,1.111-0.529h1.452c0.342,0,0.596,0.264,0.596,0.611c0,2.13-2.125,2.867-5.311,2.867
		c-3.536,0-5.66-1.969-5.66-5.67c0-3.688,2.146-5.696,5.66-5.696c3.542,0,5.668,1.948,5.668,5.55v0.577
		c0,0.345-0.254,0.609-0.593,0.609h-7.32V17.318z M52.015,15.207h4.513c-0.061-1.535-0.777-2.357-2.25-2.357
		C52.851,12.85,52.092,13.672,52.015,15.207"/>
	<path fill="#FFFFFF" d="M62.299,21.927c-0.351,0-0.615-0.264-0.615-0.616V7.727c0-0.347,0.265-0.616,0.615-0.616h2.231
		c0.342,0,0.61,0.269,0.61,0.616v13.583c0,0.353-0.269,0.616-0.61,0.616H62.299z"/>
</g>
</svg>
